<svg xmlns="http://www.w3.org/2000/svg" width="130.725" height="152.201" viewBox="0 0 130.725 152.201">
  <g id="Style_3" data-name="Style 3" transform="translate(-235.033 -86.81)">
    <g id="Background" transform="translate(235.033 161.281)">
      <g id="Group_222" data-name="Group 222" transform="translate(120.826 39.756)">
        <g id="Group_221" data-name="Group 221">
          <path id="Path_350" data-name="Path 350" d="M1565.706,1344.753a.794.794,0,0,1-1.118.876l-7.213-3.42,6.737-5.277S1565.163,1342.089,1565.706,1344.753Z" transform="translate(-1557.375 -1336.931)" fill="#000045" fill-rule="evenodd"/>
        </g>
      </g>
      <g id="Group_224" data-name="Group 224" transform="translate(113.079 44.679)">
        <g id="Group_223" data-name="Group 223">
          <path id="Path_351" data-name="Path 351" d="M1483.538,1401.79a.794.794,0,0,1-1.221.725l-6.714-4.318,7.358-4.369S1483.342,1399.078,1483.538,1401.79Z" transform="translate(-1475.328 -1393.552)" fill="#fff" fill-rule="evenodd"/>
          <path id="Path_352" data-name="Path 352" d="M1480.007,1400.178a1.06,1.06,0,0,1-.578-.172l-6.713-4.317a.275.275,0,0,1,.008-.469l7.358-4.369a.276.276,0,0,1,.416.217s.381,5.249.577,7.961a1.06,1.06,0,0,1-.52,1A1.07,1.07,0,0,1,1480.007,1400.178Zm-6.618-4.711,6.339,4.076a.518.518,0,0,0,.8-.472h0c-.162-2.235-.449-6.194-.545-7.517Z" transform="translate(-1472.589 -1390.812)" fill="#3d61ff"/>
        </g>
      </g>
      <g id="Group_226" data-name="Group 226" transform="translate(105.444 49.388)">
        <g id="Group_225" data-name="Group 225">
          <path id="Path_353" data-name="Path 353" d="M1396.26,1450.284a.794.794,0,0,1-1.325.511l-5.9-5.378,7.984-3.08S1396.52,1447.578,1396.26,1450.284Z" transform="translate(-1389.036 -1442.338)" fill="#000045" fill-rule="evenodd"/>
        </g>
      </g>
      <g id="Group_228" data-name="Group 228" transform="translate(96.808 52.115)">
        <g id="Group_227" data-name="Group 227">
          <path id="Path_354" data-name="Path 354" d="M1303.821,1482.9a.794.794,0,0,1-1.393.278l-4.9-6.3,8.392-1.674S1304.538,1480.276,1303.821,1482.9Z" transform="translate(-1297.256 -1474.922)" fill="#fff" fill-rule="evenodd"/>
          <path id="Path_355" data-name="Path 355" d="M1300.312,1481.02a1.057,1.057,0,0,1-.841-.415l-4.9-6.3a.275.275,0,0,1,.164-.439l8.392-1.674a.275.275,0,0,1,.32.343s-1.386,5.077-2.1,7.7a1.06,1.06,0,0,1-.823.767A1.1,1.1,0,0,1,1300.312,1481.02Zm-5.028-6.7,4.623,5.952a.518.518,0,0,0,.909-.18h0c.591-2.162,1.636-5.991,1.986-7.27Z" transform="translate(-1294.518 -1472.183)" fill="#3d61ff"/>
        </g>
      </g>
      <g id="Group_230" data-name="Group 230" transform="translate(88.625 54.149)">
        <g id="Group_229" data-name="Group 229">
          <path id="Path_356" data-name="Path 356" d="M1210.05,1501.636a.794.794,0,0,1-1.42.02l-3.67-7.089,8.557-.122Z" transform="translate(-1204.96 -1494.446)" fill="#000045" fill-rule="evenodd"/>
        </g>
      </g>
      <g id="Group_232" data-name="Group 232" transform="translate(79.727 53.363)">
        <g id="Group_231" data-name="Group 231">
          <path id="Path_357" data-name="Path 357" d="M1114.178,1497.739l-3.579-8.876,8.53.686Z" transform="translate(-1110.323 -1488.588)" fill="#fff" fill-rule="evenodd"/>
          <path id="Path_358" data-name="Path 358" d="M1111.439,1495.274h-.022a.275.275,0,0,1-.234-.172l-3.579-8.876a.276.276,0,0,1,.278-.378l8.53.686a.275.275,0,0,1,.214.417l-4.951,8.19A.275.275,0,0,1,1111.439,1495.274Zm-3.157-8.841,3.206,7.951,4.435-7.337Z" transform="translate(-1107.584 -1485.848)" fill="#3d61ff"/>
        </g>
      </g>
      <g id="Group_234" data-name="Group 234" transform="translate(1.557 4.523)">
        <g id="Group_233" data-name="Group 233">
          <path id="Path_359" data-name="Path 359" d="M252.093,961.857a.8.8,0,0,0,.291.781.793.793,0,0,0,.828.1l9.707-4.6-8.679-6.8S252.759,958.594,252.093,961.857Z" transform="translate(-252.078 -951.33)" fill="#000045" fill-rule="evenodd"/>
        </g>
      </g>
      <g id="Group_236" data-name="Group 236" transform="translate(11.318 11.224)">
        <g id="Group_235" data-name="Group 235">
          <path id="Path_360" data-name="Path 360" d="M361.914,1038.407a.8.8,0,0,0,.4.732.792.792,0,0,0,.833-.024l8.949-5.945-9.561-5.489S362.107,1035.082,361.914,1038.407Z" transform="translate(-361.637 -1027.406)" fill="#fff" fill-rule="evenodd"/>
          <path id="Path_361" data-name="Path 361" d="M359.973,1036.783a1.076,1.076,0,0,1-1.073-1.127v0c.193-3.325.621-10.726.621-10.726a.275.275,0,0,1,.412-.223l9.561,5.489a.275.275,0,0,1,.015.468l-8.949,5.945A1.059,1.059,0,0,1,359.973,1036.783Zm-.523-1.1a.523.523,0,0,0,.261.479.514.514,0,0,0,.544-.015l8.578-5.7-8.788-5.045C359.95,1027.049,359.614,1032.846,359.45,1035.682Z" transform="translate(-358.898 -1024.667)" fill="#3d61ff"/>
        </g>
      </g>
      <g id="Group_238" data-name="Group 238" transform="translate(21.922 16.929)">
        <g id="Group_237" data-name="Group 237">
          <path id="Path_362" data-name="Path 362" d="M475.968,1097.8a.8.8,0,0,0,.506.663.793.793,0,0,0,.82-.151l7.939-7.239-10.286-3.968S475.652,1094.483,475.968,1097.8Z" transform="translate(-474.947 -1087.103)" fill="#000045" fill-rule="evenodd"/>
        </g>
      </g>
      <g id="Group_240" data-name="Group 240" transform="translate(31.893 20.529)">
        <g id="Group_239" data-name="Group 239">
          <path id="Path_363" data-name="Path 363" d="M589.915,1139.889a.8.8,0,0,0,.612.566.792.792,0,0,0,.782-.288l6.589-8.487-10.812-2.156S589.039,1136.676,589.915,1139.889Z" transform="translate(-586.811 -1129.249)" fill="#fff" fill-rule="evenodd"/>
          <path id="Path_364" data-name="Path 364" d="M587.949,1138.008a1.093,1.093,0,0,1-.214-.021,1.072,1.072,0,0,1-.823-.761v0c-.876-3.213-2.829-10.365-2.829-10.365a.275.275,0,0,1,.32-.343l10.812,2.156a.275.275,0,0,1,.164.439l-6.589,8.486A1.058,1.058,0,0,1,587.949,1138.008Zm-.507-.932a.524.524,0,0,0,.4.371.515.515,0,0,0,.51-.187l6.316-8.135-9.938-1.982C585.165,1128.733,586.694,1134.335,587.442,1137.076Z" transform="translate(-584.072 -1126.51)" fill="#3d61ff"/>
        </g>
      </g>
      <g id="Group_242" data-name="Group 242" transform="translate(42.855 23.064)">
        <g id="Group_241" data-name="Group 241">
          <path id="Path_365" data-name="Path 365" d="M708.716,1163.928a.8.8,0,0,0,.7.446.792.792,0,0,0,.717-.426c1.53-2.958,4.938-9.542,4.938-9.542l-11.023-.157S707.27,1160.927,708.716,1163.928Z" transform="translate(-704.051 -1154.249)" fill="#000045" fill-rule="evenodd"/>
        </g>
      </g>
      <g id="Group_244" data-name="Group 244" transform="translate(53.728 22.125)">
        <g id="Group_243" data-name="Group 243">
          <path id="Path_366" data-name="Path 366" d="M832.429,1158.426l4.611-11.435-10.989.883Z" transform="translate(-825.776 -1146.716)" fill="#fff" fill-rule="evenodd"/>
          <path id="Path_367" data-name="Path 367" d="M829.691,1155.963a.276.276,0,0,1-.236-.133l-6.378-10.552a.275.275,0,0,1,.214-.417l10.989-.883a.275.275,0,0,1,.278.378l-4.611,11.435a.275.275,0,0,1-.234.172Zm-5.912-10.588,5.863,9.7,4.238-10.511Z" transform="translate(-823.037 -1143.978)" fill="#3d61ff"/>
        </g>
      </g>
      <g id="Group_246" data-name="Group 246" transform="translate(71.726 36.185)">
        <g id="Group_245" data-name="Group 245">
          <path id="Path_368" data-name="Path 368" d="M1038.773,1316.246a65.269,65.269,0,0,1-18.564-2.822.276.276,0,0,1,.157-.528,61.677,61.677,0,0,0,25.023,2.4,52.255,52.255,0,0,0,18.133-5.66,48.722,48.722,0,0,0,14.781-11.689.276.276,0,1,1,.437.335,49.276,49.276,0,0,1-14.938,11.829,52.807,52.807,0,0,1-18.33,5.729A55.442,55.442,0,0,1,1038.773,1316.246Z" transform="translate(-1020.012 -1297.843)" fill="#000045"/>
        </g>
      </g>
      <g id="Group_248" data-name="Group 248" transform="translate(0)">
        <g id="Group_247" data-name="Group 247">
          <path id="Path_369" data-name="Path 369" d="M286.516,925.382a71.34,71.34,0,0,1-8.62-.516,67.945,67.945,0,0,1-23.586-7.373,63.394,63.394,0,0,1-19.219-15.217.275.275,0,1,1,.437-.335,62.84,62.84,0,0,0,19.062,15.077,67.4,67.4,0,0,0,23.39,7.3,79.537,79.537,0,0,0,32.274-3.1.275.275,0,0,1,.157.528A84.015,84.015,0,0,1,286.516,925.382Z" transform="translate(-235.033 -901.832)" fill="#3d61ff"/>
        </g>
      </g>
      <g id="Group_250" data-name="Group 250" transform="translate(23.007 38.97)">
        <g id="Group_249" data-name="Group 249">
          <path id="Path_370" data-name="Path 370" d="M500.022,1350.06l-.277,1.591,3.43-1.271-1.243-1.023c3.238-1.875,4.51-6.654,2.812-11.242-1.846-4.992-6.519-7.868-10.432-6.427s-5.589,6.682-3.742,11.675C492.267,1347.943,496.343,1350.748,500.022,1350.06Z" transform="translate(-489.545 -1331.042)" fill="#fff" fill-rule="evenodd"/>
          <path id="Path_371" data-name="Path 371" d="M497.024,1349.2a.275.275,0,0,1-.271-.323l.211-1.212c-3.738.46-7.712-2.45-9.373-6.932-1.9-5.133-.147-10.529,3.905-12.029s8.89,1.463,10.786,6.59c1.659,4.482.537,9.281-2.6,11.369l.946.779a.276.276,0,0,1-.079.471l-3.43,1.271A.277.277,0,0,1,497.024,1349.2Zm.277-2.142a.276.276,0,0,1,.271.323l-.195,1.119,2.531-.938-.873-.718a.276.276,0,0,1,.037-.451c3.159-1.829,4.316-6.518,2.692-10.908-1.791-4.842-6.312-7.651-10.078-6.264s-5.372,6.473-3.579,11.321c1.626,4.389,5.557,7.193,9.143,6.521A.273.273,0,0,1,497.3,1347.063Z" transform="translate(-486.824 -1328.322)" fill="#000045"/>
        </g>
      </g>
      <g id="Group_252" data-name="Group 252" transform="translate(104.778 23.167)">
        <g id="Group_251" data-name="Group 251">
          <path id="Path_372" data-name="Path 372" d="M1389.315,1174.191l.234,1.342-2.895-1.073,1.049-.863c-2.733-1.583-3.806-5.616-2.373-9.487,1.558-4.214,5.5-6.641,8.8-5.424s4.717,5.64,3.158,9.853C1395.86,1172.405,1392.42,1174.772,1389.315,1174.191Z" transform="translate(-1384.424 -1158.099)" fill="#fff" fill-rule="evenodd"/>
          <path id="Path_373" data-name="Path 373" d="M1386.868,1173.087a.273.273,0,0,1-.1-.017l-2.895-1.073a.276.276,0,0,1-.079-.471l.754-.62c-2.626-1.789-3.56-5.834-2.162-9.613,1.608-4.349,5.716-6.854,9.158-5.587s4.932,5.853,3.322,10.207c-1.4,3.779-4.742,6.239-7.9,5.885l.168.966a.275.275,0,0,1-.271.323Zm-2.35-1.44,2,.74-.151-.871a.275.275,0,0,1,.322-.318c3.007.563,6.3-1.792,7.668-5.477,1.5-4.069.161-8.33-3-9.5s-6.947,1.2-8.45,5.261c-1.364,3.685-.4,7.62,2.253,9.154a.275.275,0,0,1,.037.451Z" transform="translate(-1381.743 -1155.377)" fill="#3d61ff"/>
        </g>
      </g>
    </g>
    <g id="Head" transform="translate(292.718 148.422)">
      <g id="Group_254" data-name="Group 254" transform="translate(0 22.41)">
        <g id="Group_253" data-name="Group 253">
          <path id="Path_374" data-name="Path 374" d="M876.3,1006.824a22.806,22.806,0,0,0-9.957,2.783l7.114,11.167s4.88-.8,6.7-10.1,0-.655,0-.655Z" transform="translate(-866.344 -1006.36)" fill="#000045" fill-rule="evenodd"/>
        </g>
      </g>
      <g id="Group_256" data-name="Group 256" transform="translate(20.568 23.005)">
        <g id="Group_255" data-name="Group 255">
          <path id="Path_375" data-name="Path 375" d="M1096.111,1013.336a22.806,22.806,0,0,1,9.957,2.783l-7.114,11.167s-4.879-.8-6.7-10.1,0-.655,0-.655Z" transform="translate(-1091.441 -1012.872)" fill="#000045" fill-rule="evenodd"/>
        </g>
      </g>
      <g id="Group_258" data-name="Group 258" transform="translate(11.421 25.011)">
        <g id="Group_257" data-name="Group 257">
          <path id="Path_376" data-name="Path 376" d="M995.117,1038.164l-.767,5.369,4.688,2.922,6.149-1.4,1.481-7.22Z" transform="translate(-994.075 -1037.565)" fill="#fff" fill-rule="evenodd"/>
          <path id="Path_377" data-name="Path 377" d="M996.3,1043.992a.276.276,0,0,1-.146-.042l-4.688-2.922a.276.276,0,0,1-.127-.273l.767-5.369a.275.275,0,0,1,.265-.236l11.551-.324a.275.275,0,0,1,.277.33l-1.481,7.22a.275.275,0,0,1-.209.213l-6.149,1.4A.278.278,0,0,1,996.3,1043.992Zm-4.39-3.336,4.439,2.768,5.865-1.331,1.375-6.705-10.971.308Z" transform="translate(-991.336 -1034.826)" fill="#000045"/>
        </g>
      </g>
      <g id="Group_260" data-name="Group 260" transform="translate(3.59 6.207)">
        <g id="Group_259" data-name="Group 259">
          <path id="Path_378" data-name="Path 378" d="M912.611,840.095s-2.955-.417-3.795,2.135c-.807,2.427,1.428,4.377,3.795,4.245,0,0,2.169,6.922,8.952,7.279a13.153,13.153,0,0,0,11.663-5.831s4.324.225,4.846-3c.549-3.359-3.6-3.861-3.6-3.861l-.41-3.015-4.879-6-12.608,2.129-3.141,2.8Z" transform="translate(-908.373 -831.772)" fill="#fff" fill-rule="evenodd"/>
          <path id="Path_379" data-name="Path 379" d="M919.572,851.31c-.249,0-.5-.006-.759-.02a9.617,9.617,0,0,1-7.222-3.879,12.894,12.894,0,0,1-1.91-3.394h-.036a4.214,4.214,0,0,1-3.336-1.578,3.2,3.2,0,0,1-.49-3.035,3.251,3.251,0,0,1,2.406-2.2,4.929,4.929,0,0,1,1.443-.138l.761-2.89a.275.275,0,0,1,.083-.135l3.141-2.8a.275.275,0,0,1,.137-.066l12.608-2.129a.275.275,0,0,1,.26.1l4.879,6a.278.278,0,0,1,.059.137l.382,2.812a5.166,5.166,0,0,1,3.089,1.681,3.114,3.114,0,0,1,.541,2.464c-.495,3.05-4.144,3.228-4.968,3.229a13.457,13.457,0,0,1-11.069,5.849Zm-9.7-7.85a.275.275,0,0,1,.263.193c.021.067,2.2,6.744,8.7,7.087a12.984,12.984,0,0,0,11.412-5.7.282.282,0,0,1,.25-.134,7.1,7.1,0,0,0,2.147-.283,3.079,3.079,0,0,0,2.414-2.482,2.585,2.585,0,0,0-.436-2.043,4.889,4.889,0,0,0-2.929-1.5.276.276,0,0,1-.24-.236l-.4-2.938-4.729-5.819L913.96,831.7l-3.02,2.7-.8,3.034a.275.275,0,0,1-.3.2h0a4.319,4.319,0,0,0-1.493.109,2.788,2.788,0,0,0-1.6,4.368,3.731,3.731,0,0,0,3.114,1.356Z" transform="translate(-905.637 -829.033)" fill="#000045"/>
        </g>
      </g>
      <g id="Group_262" data-name="Group 262" transform="translate(7.157)">
        <g id="Group_261" data-name="Group 261">
          <path id="Path_380" data-name="Path 380" d="M947.482,772.2c-.4-.245-2.273,16.47-2.533,17.309-.126.41-.86-14.929.747-20.463,2.173-7.464,11.06-9.62,17.993-6.671s7.359,10.823,5.786,15.035l-2.3-.754s-5.347,14.466-5.686,14.314c-.76-.344,3.987-15.7,3.987-15.7l-4.42-1.646v-2.955l-1.713,2.691S950.2,771.624,947.482,772.2Z" transform="translate(-944.672 -761.101)" fill="#000045" fill-rule="evenodd"/>
        </g>
      </g>
      <g id="Group_264" data-name="Group 264" transform="translate(28.506 17.963)">
        <g id="Group_263" data-name="Group 263">
          <path id="Path_381" data-name="Path 381" d="M1178.589,958.492a.275.275,0,0,1-.026-.55l2.625-.251a.275.275,0,0,1,.053.548l-2.625.251Z" transform="translate(-1178.314 -957.69)" fill="#000045"/>
        </g>
      </g>
      <g id="Group_266" data-name="Group 266" transform="translate(29.391 18.194)">
        <g id="Group_265" data-name="Group 265">
          <path id="Path_382" data-name="Path 382" d="M1188.926,962.247a.275.275,0,0,1-.253-.166l-.641-1.474a.275.275,0,1,1,.5-.22l.641,1.474a.275.275,0,0,1-.252.385Z" transform="translate(-1188.009 -960.221)" fill="#000045"/>
        </g>
      </g>
      <g id="Group_268" data-name="Group 268" transform="translate(5.153 16.713)">
        <g id="Group_267" data-name="Group 267">
          <path id="Path_383" data-name="Path 383" d="M924.746,945.331a.274.274,0,0,1-.111-.024l-1.732-.767a.275.275,0,0,1,.223-.5l1.732.767a.275.275,0,0,1-.112.527Z" transform="translate(-922.738 -944.013)" fill="#000045"/>
        </g>
      </g>
      <g id="Group_270" data-name="Group 270" transform="translate(16.28 18.902)">
        <g id="Group_269" data-name="Group 269">
          <path id="Path_384" data-name="Path 384" d="M1044.795,970.329a.275.275,0,0,1-.246-.4l.9-1.812a.275.275,0,1,1,.493.245l-.9,1.811A.275.275,0,0,1,1044.795,970.329Z" transform="translate(-1044.52 -967.966)" fill="#000045"/>
        </g>
      </g>
      <g id="Group_272" data-name="Group 272" transform="translate(20.247 17.491)">
        <g id="Group_271" data-name="Group 271">
          <path id="Path_385" data-name="Path 385" d="M1088.211,953.91a.275.275,0,0,1-.215-.447,3.135,3.135,0,0,1,3.428-.753.275.275,0,0,1-.158.528,2.628,2.628,0,0,0-2.84.569A.275.275,0,0,1,1088.211,953.91Z" transform="translate(-1087.936 -952.523)" fill="#000045"/>
        </g>
      </g>
      <g id="Group_274" data-name="Group 274" transform="translate(11.822 15.895)">
        <g id="Group_273" data-name="Group 273">
          <path id="Path_386" data-name="Path 386" d="M998.78,937.208a.275.275,0,0,1-.257-.177A2.611,2.611,0,0,0,996,935.607a.275.275,0,1,1,.014-.551,3.138,3.138,0,0,1,3.025,1.779.276.276,0,0,1-.258.372Z" transform="translate(-995.73 -935.056)" fill="#000045"/>
        </g>
      </g>
      <g id="Group_276" data-name="Group 276" transform="translate(20.876 13.529)">
        <g id="Group_275" data-name="Group 275">
          <path id="Path_387" data-name="Path 387" d="M1099.2,911.05a.275.275,0,0,1-.216-.1,3.009,3.009,0,0,0-3.769-.925.275.275,0,0,1-.256-.488,3.6,3.6,0,0,1,4.457,1.071.275.275,0,0,1-.216.446Z" transform="translate(-1094.811 -909.167)" fill="#000045"/>
        </g>
      </g>
      <g id="Group_278" data-name="Group 278" transform="translate(11.902 12.553)">
        <g id="Group_277" data-name="Group 277">
          <path id="Path_388" data-name="Path 388" d="M1001.006,900.348a.275.275,0,0,1-.224-.114h0A3.008,3.008,0,0,0,997,899.38a.275.275,0,0,1-.234-.5,3.6,3.6,0,0,1,4.467,1.03.275.275,0,0,1-.223.436Z" transform="translate(-996.605 -898.486)" fill="#000045"/>
        </g>
      </g>
      <g id="Group_280" data-name="Group 280" transform="translate(3.889 23.596)">
        <g id="Group_279" data-name="Group 279">
          <path id="Path_389" data-name="Path 389" d="M916.858,1027.721a2.138,2.138,0,0,1-2.916-3.127,1.678,1.678,0,0,1,2.631.126.876.876,0,0,1-.02.873c-.112.2-.271.384-.483.384a.543.543,0,0,1-.4-.225.689.689,0,0,0-.972-.04.7.7,0,0,0-.04.978,1.908,1.908,0,0,0,1.428.668,2.022,2.022,0,0,0,1.673-1.1,2.252,2.252,0,0,0-.04-2.288,3.014,3.014,0,0,0-4.727-.37,3.512,3.512,0,0,0,4.82,5.111c.007-.006.013-.013.02-.013l5.468-5.15a.69.69,0,1,0-.945-1l-5.488,5.17C916.865,1027.708,916.865,1027.714,916.858,1027.721Z" transform="translate(-911.623 -1022.077)" fill="#fff" fill-rule="evenodd"/>
          <path id="Path_390" data-name="Path 390" d="M912.7,1027.2l-.114,0a3.786,3.786,0,0,1-2.488-6.54,3.61,3.61,0,0,1,2.88-1.019,3.125,3.125,0,0,1,2.266,1.439,2.486,2.486,0,0,1,.161,2.342l4.055-3.82a.97.97,0,0,1,1.36.037.966.966,0,0,1-.036,1.368l-5.469,5.151a.266.266,0,0,1-.038.03A3.761,3.761,0,0,1,912.7,1027.2Zm-.1-7.032a3.128,3.128,0,0,0-2.124.891,3.235,3.235,0,0,0,2.127,5.589,3.2,3.2,0,0,0,2.315-.879.325.325,0,0,1,.046-.038l5.442-5.126a.417.417,0,0,0,.13-.292.41.41,0,0,0-.114-.3.418.418,0,0,0-.585-.015l-5.486,5.169,0,0,0,0-.009.009a2.413,2.413,0,0,1-3.292-3.53,2.23,2.23,0,0,1,1.773-.634,1.764,1.764,0,0,1,1.278.809,1.143,1.143,0,0,1-.007,1.151.86.86,0,0,1-.727.531.78.78,0,0,1-.6-.315.413.413,0,0,0-.286-.131.4.4,0,0,0-.294.108.423.423,0,0,0-.023.592,1.637,1.637,0,0,0,1.22.578,1.743,1.743,0,0,0,1.436-.962,1.964,1.964,0,0,0-.029-2,2.583,2.583,0,0,0-1.87-1.193A2.668,2.668,0,0,0,912.6,1020.17Zm2.527,6.064h0Zm.174-.067,0,0Zm-2.708-4.6a1.76,1.76,0,0,0-1.172.5,1.863,1.863,0,0,0,2.516,2.747,1.947,1.947,0,0,1-.55.091,2.181,2.181,0,0,1-1.634-.754.977.977,0,0,1,.052-1.37.951.951,0,0,1,.692-.254.962.962,0,0,1,.669.308c.123.135.18.137.181.137h0c.079,0,.17-.092.257-.244a.631.631,0,0,0,.027-.589,1.2,1.2,0,0,0-.881-.561A1.3,1.3,0,0,0,912.589,1021.562Z" transform="translate(-908.909 -1019.342)" fill="#3d61ff"/>
        </g>
      </g>
      <g id="Group_282" data-name="Group 282" transform="translate(14.946 23.454)">
        <g id="Group_281" data-name="Group 281">
          <path id="Path_391" data-name="Path 391" d="M1030.927,1018.99a.274.274,0,0,1-.182-.069l-.738-.648a.275.275,0,0,1,.364-.414l.738.648a.275.275,0,0,1-.182.482Z" transform="translate(-1029.914 -1017.791)" fill="#000045"/>
        </g>
      </g>
    </g>
    <g id="Doodle" transform="translate(285.064 105.126)">
      <g id="Group_284" data-name="Group 284" transform="translate(36.338 28.955)">
        <g id="Group_283" data-name="Group 283">
          <path id="Path_392" data-name="Path 392" d="M1182.788,608.654a.275.275,0,0,1-.24-.139l-2.248-3.961a.275.275,0,1,1,.479-.272l2.248,3.961a.275.275,0,0,1-.239.411Z" transform="translate(-1180.264 -604.143)" fill="#3d61ff"/>
        </g>
      </g>
      <g id="Group_286" data-name="Group 286" transform="translate(52.598 7.328)">
        <g id="Group_285" data-name="Group 285">
          <path id="Path_393" data-name="Path 393" d="M1367.147,376.857a.275.275,0,0,1-.121-.028c-3.309-1.615-4.765-3.039-5.353-4.132-2.131-1-3.385-4.714-3.438-4.875a.275.275,0,0,1,.523-.174c.011.033,1,2.973,2.6,4.211a2.013,2.013,0,0,1,.065-1.094,1.78,1.78,0,0,1,2.035-1.124,1.612,1.612,0,0,1,1.214,1.435,1.538,1.538,0,0,1-.748,1.573,2.538,2.538,0,0,1-1.436.283,13.337,13.337,0,0,0,4.776,3.4.275.275,0,0,1-.121.523Zm-5.063-4.584a1.908,1.908,0,0,0,1.6-.115,1,1,0,0,0,.448-1.02,1.081,1.081,0,0,0-.8-.962,1.232,1.232,0,0,0-1.385.778A1.7,1.7,0,0,0,1362.083,372.272Z" transform="translate(-1358.221 -367.459)" fill="#000045"/>
        </g>
      </g>
      <g id="Group_288" data-name="Group 288" transform="translate(12.748 30.621)">
        <g id="Group_287" data-name="Group 287">
          <path id="Path_394" data-name="Path 394" d="M923.184,626.1c-.468,0-.793-.03-.833-.034a.276.276,0,0,1,.053-.549,8.053,8.053,0,0,0,3.339-.4,1.472,1.472,0,0,1-.55-.328,1.367,1.367,0,0,1-.156-1.78,1.241,1.241,0,0,1,1.39-.41,1.191,1.191,0,0,1,.876,1.025,1.956,1.956,0,0,1-.164.925,9.869,9.869,0,0,0,3.461-2.112.275.275,0,1,1,.355.421c-2.027,1.708-3.407,2.268-4.323,2.349A5.736,5.736,0,0,1,923.184,626.1Zm2.823-3.009a.651.651,0,0,0-.535.26.814.814,0,0,0,.1,1.045,1.171,1.171,0,0,0,.833.268h0a1.314,1.314,0,0,0,.344-1.007.651.651,0,0,0-.491-.528A.873.873,0,0,0,926.007,623.089Z" transform="translate(-922.101 -622.375)" fill="#000045"/>
        </g>
      </g>
      <g id="Group_290" data-name="Group 290" transform="translate(70.11 5.92)">
        <g id="Group_289" data-name="Group 289">
          <path id="Path_395" data-name="Path 395" d="M1550.4,359.168a.276.276,0,0,1-.275-.265l-.245-6.572a.275.275,0,0,1,.551-.02l.244,6.572a.275.275,0,0,1-.265.285Z" transform="translate(-1549.876 -352.045)" fill="#000045"/>
        </g>
      </g>
      <g id="Group_292" data-name="Group 292" transform="translate(35.207 11.599)">
        <g id="Group_291" data-name="Group 291">
          <path id="Path_396" data-name="Path 396" d="M1170.906,417.684l.437,1.706a6.622,6.622,0,0,0,5.051.39l-.271-2.565A9.38,9.38,0,0,1,1170.906,417.684Z" transform="translate(-1170.631 -416.939)" fill="#fff" fill-rule="evenodd"/>
          <path id="Path_397" data-name="Path 397" d="M1171.744,417.686a7.73,7.73,0,0,1-3.269-.791.275.275,0,0,1-.138-.175l-.437-1.706a.275.275,0,0,1,.338-.334,9.162,9.162,0,0,0,5.041-.458.275.275,0,0,1,.378.226l.271,2.565a.275.275,0,0,1-.166.282A5.145,5.145,0,0,1,1171.744,417.686Zm-2.905-1.227a6.391,6.391,0,0,0,4.52.4l-.212-2.005a9.638,9.638,0,0,1-4.6.457Z" transform="translate(-1167.892 -414.201)" fill="#3d61ff"/>
        </g>
      </g>
      <g id="Group_294" data-name="Group 294" transform="translate(0 23.421)">
        <g id="Group_293" data-name="Group 293">
          <path id="Path_398" data-name="Path 398" d="M785.593,548.874a7.947,7.947,0,0,0,4.265-2.281l.747,1.574s-.8,3.352-3.907,4.073Z" transform="translate(-785.318 -546.318)" fill="#fff" fill-rule="evenodd"/>
          <path id="Path_399" data-name="Path 399" d="M783.959,549.777a.275.275,0,0,1-.261-.19l-1.1-3.365a.275.275,0,0,1,.23-.359,7.761,7.761,0,0,0,4.1-2.2.275.275,0,0,1,.443.077l.747,1.574a.276.276,0,0,1,.019.182c-.034.144-.877,3.527-4.113,4.277A.274.274,0,0,1,783.959,549.777Zm-.743-3.425.924,2.818a5.508,5.508,0,0,0,3.434-3.715l-.54-1.137A8.4,8.4,0,0,1,783.216,546.352Z" transform="translate(-782.58 -543.58)" fill="#3d61ff"/>
        </g>
      </g>
      <g id="Group_296" data-name="Group 296" transform="translate(46.586 41.762)">
        <g id="Group_295" data-name="Group 295">
          <path id="Path_400" data-name="Path 400" d="M1295.438,749.182l1.17-1.865a5.288,5.288,0,0,0,2.493,3.7l-.86.423S1296.846,751.668,1295.438,749.182Z" transform="translate(-1295.163 -747.042)" fill="#fff" fill-rule="evenodd"/>
          <path id="Path_401" data-name="Path 401" d="M1295.41,748.979c-.418,0-1.7-.2-2.95-2.4a.275.275,0,0,1,.006-.282l1.17-1.864a.275.275,0,0,1,.506.107,5.044,5.044,0,0,0,2.343,3.488.275.275,0,0,1,0,.493l-.859.423a.275.275,0,0,1-.077.025A.891.891,0,0,1,1295.41,748.979Zm-2.389-2.529a4.418,4.418,0,0,0,1.681,1.783,1.539,1.539,0,0,0,.726.2l.353-.174a5.388,5.388,0,0,1-2.03-2.968Z" transform="translate(-1292.424 -744.304)" fill="#000045"/>
        </g>
      </g>
      <g id="Group_298" data-name="Group 298" transform="translate(17.69 13.673)">
        <g id="Group_297" data-name="Group 297">
          <path id="Path_402" data-name="Path 402" d="M977.269,439.066a1.084,1.084,0,1,1,1.084-1.084A1.086,1.086,0,0,1,977.269,439.066Zm0-1.618a.534.534,0,1,0,.533.534A.534.534,0,0,0,977.269,437.448Z" transform="translate(-976.185 -436.897)" fill="#000045"/>
        </g>
      </g>
      <g id="Group_300" data-name="Group 300" transform="translate(65.222 0)">
        <g id="Group_299" data-name="Group 299">
          <path id="Path_403" data-name="Path 403" d="M1497.462,289.427a1.084,1.084,0,1,1,1.084-1.084A1.086,1.086,0,0,1,1497.462,289.427Zm0-1.618a.534.534,0,1,0,.533.534A.534.534,0,0,0,1497.462,287.809Z" transform="translate(-1496.378 -287.258)" fill="#000045"/>
        </g>
      </g>
      <g id="Group_302" data-name="Group 302" transform="translate(3.527 48.541)">
        <g id="Group_301" data-name="Group 301">
          <path id="Path_404" data-name="Path 404" d="M822.2,820.556a1.026,1.026,0,1,1,1.026-1.026A1.028,1.028,0,0,1,822.2,820.556Zm0-1.5a.476.476,0,1,0,.476.476A.476.476,0,0,0,822.2,819.054Z" transform="translate(-821.175 -818.503)" fill="#000045"/>
        </g>
      </g>
      <g id="Group_304" data-name="Group 304" transform="translate(60.148 1.864)">
        <g id="Group_303" data-name="Group 303">
          <path id="Path_405" data-name="Path 405" d="M1444.71,316.344h-.009a1.728,1.728,0,0,1-1.538-.917,1.7,1.7,0,0,1,.312-1.826,1.059,1.059,0,0,0,.277-1.014,1.289,1.289,0,0,0-1-.612,1.6,1.6,0,0,1-1.279-.747,1.87,1.87,0,0,1,.17-1.694,1,1,0,0,0,.1-.872,1.061,1.061,0,0,0-.667-.462.275.275,0,0,1,.11-.54,1.609,1.609,0,0,1,1.049.756,1.506,1.506,0,0,1-.1,1.36,1.478,1.478,0,0,0-.177,1.2,1.16,1.16,0,0,0,.872.458,1.8,1.8,0,0,1,1.432.946,1.539,1.539,0,0,1-.344,1.553,1.22,1.22,0,0,0-.258,1.258,1.2,1.2,0,0,0,1.059.606.275.275,0,0,1-.009.551Z" transform="translate(-1440.852 -307.654)" fill="#3d61ff"/>
        </g>
      </g>
    </g>
    <g id="Divider" transform="translate(248.637 238.46)">
      <g id="Group_305" data-name="Group 305" transform="translate(0)">
        <path id="Path_406" data-name="Path 406" d="M485.851,1747.048H384.189a.275.275,0,1,1,0-.551H485.851a.275.275,0,1,1,0,.551Z" transform="translate(-383.914 -1746.497)" fill="#000045"/>
      </g>
    </g>
    <g id="Body" transform="translate(277.419 178.224)">
      <g id="Group_307" data-name="Group 307" transform="translate(12.902)">
        <g id="Group_306" data-name="Group 306">
          <path id="Path_407" data-name="Path 407" d="M843.118,1150.551l1.593-43.763,8.6-13.812,1.541-.212a8.307,8.307,0,0,1,1.375-2.34s7.643-.575,11.875.979a.746.746,0,0,1,.476.694v.694l-3.339,57.76Z" transform="translate(-842.843 -1090.041)" fill="#fff" fill-rule="evenodd"/>
          <path id="Path_408" data-name="Path 408" d="M862.5,1148.049H840.38a.275.275,0,0,1-.275-.285L841.7,1104a.274.274,0,0,1,.042-.135l8.6-13.812a.275.275,0,0,1,.2-.127l1.385-.19a7.3,7.3,0,0,1,1.408-2.313.273.273,0,0,1,.139-.05c.315-.024,7.752-.562,11.99.995a1.02,1.02,0,0,1,.656.953v.694c0,.005,0,.011,0,.016l-3.339,57.759A.275.275,0,0,1,862.5,1148.049Zm-21.837-.551h21.577l3.324-57.492v-.687a.47.47,0,0,0-.3-.438c-3.885-1.426-10.825-1.021-11.669-.966a8.347,8.347,0,0,0-1.226,2.177.275.275,0,0,1-.217.167l-1.413.194-8.495,13.64Z" transform="translate(-840.105 -1087.263)" fill="#000045"/>
        </g>
      </g>
      <g id="Group_309" data-name="Group 309" transform="translate(32.602 2.995)">
        <g id="Group_308" data-name="Group 308">
          <path id="Path_409" data-name="Path 409" d="M1061.09,1120.041s2.77,1.045,4.555,1.725a3.053,3.053,0,0,1,1.884,2.083c.985,3.709,3.438,12.906,3.438,12.906l-1.1,40.8h-14.162c.013-7.643.291-36.6,3.822-53.4A11.81,11.81,0,0,1,1061.09,1120.041Z" transform="translate(-1055.708 -1120.041)" fill="#3d61ff" fill-rule="evenodd"/>
        </g>
      </g>
      <g id="Group_311" data-name="Group 311" transform="translate(0 1.573)">
        <g id="Group_310" data-name="Group 310">
          <path id="Path_410" data-name="Path 410" d="M719.924,1104.484s-3.227.8-5.064,1.25a2.888,2.888,0,0,0-1.845,1.435c-1.64,3.061-6.036,11.3-6.036,11.3l.007.013s-5.455,31.491-8.079,44.939h15.927c1.369-17.468,4.417-41.5,8.542-57.72a8.326,8.326,0,0,1-3.326-1.1Z" transform="translate(-698.906 -1104.484)" fill="#3d61ff" fill-rule="evenodd"/>
        </g>
      </g>
      <g id="Group_313" data-name="Group 313" transform="translate(26.1 2.403)">
        <g id="Group_312" data-name="Group 312">
          <path id="Path_411" data-name="Path 411" d="M994.775,1114.737a.278.278,0,0,1-.077-.011c-2.8-.817-9.8-.577-9.868-.574h-.01a.275.275,0,0,1-.01-.551c.291-.011,7.159-.246,10.042.6a.275.275,0,0,1-.077.54Z" transform="translate(-984.544 -1113.563)" fill="#000045"/>
        </g>
      </g>
    </g>
    <g id="Right-hand" transform="translate(246.676 86.81)">
      <g id="Group_315" data-name="Group 315" transform="translate(13.535 50.953)">
        <g id="Group_314" data-name="Group 314">
          <path id="Path_412" data-name="Path 412" d="M513.592,652.9s.384,2.01,3.65,3.517l2.87-1.051-1.369-7.154-1.5-.754Z" transform="translate(-513.317 -647.186)" fill="#fff" fill-rule="evenodd"/>
          <path id="Path_413" data-name="Path 413" d="M514.5,653.957a.275.275,0,0,1-.116-.025c-3.356-1.549-3.788-3.628-3.8-3.716a.275.275,0,0,1,.042-.2l3.649-5.441a.275.275,0,0,1,.352-.093l1.5.754a.275.275,0,0,1,.147.194l1.369,7.154a.275.275,0,0,1-.176.31l-2.87,1.051A.273.273,0,0,1,514.5,653.957Zm-3.35-3.744c.131.406.783,1.948,3.363,3.171l2.542-.931-1.3-6.791-1.163-.584Zm-.3-.049h0Z" transform="translate(-510.579 -644.447)" fill="#000045"/>
        </g>
      </g>
      <g id="Group_317" data-name="Group 317" transform="translate(10.302 24.09)">
        <g id="Group_316" data-name="Group 316">
          <path id="Path_414" data-name="Path 414" d="M475.927,401.694a.275.275,0,0,1-.264-.2,20.327,20.327,0,0,1,2.915-15.533c4.5-6.991,5.588-13.745,3.535-21.9a37.8,37.8,0,0,1-.911-13.379.275.275,0,1,1,.544.083,37.22,37.22,0,0,0,.9,13.161c2.094,8.315.982,15.2-3.606,22.332a19.729,19.729,0,0,0-2.85,15.079.276.276,0,0,1-.264.353Z" transform="translate(-475.195 -350.451)" fill="#3d61ff"/>
        </g>
      </g>
      <g id="Group_319" data-name="Group 319" transform="translate(8.529 28.156)">
        <g id="Group_318" data-name="Group 318">
          <path id="Path_415" data-name="Path 415" d="M463.607,442.881a.274.274,0,0,1-.212-.1,15.958,15.958,0,0,1-2.625-5.181,16.313,16.313,0,0,1,1.324-12.638c2.454-4.644,3.284-8.081,2.69-11.142-.543-2.8-2.208-5.108-4.9-8.143-5.116-5.763-4-10.329-3.955-10.52a.275.275,0,0,1,.533.138c-.015.061-1.064,4.5,3.834,10.016,3.623,4.086,4.61,6.245,5.029,8.4.619,3.193-.227,6.741-2.744,11.5a15.919,15.919,0,0,0,1.238,17.209.275.275,0,0,1-.212.452Z" transform="translate(-455.793 -394.951)" fill="#000045"/>
        </g>
      </g>
      <g id="Group_321" data-name="Group 321" transform="translate(7.234 29.095)">
        <g id="Group_320" data-name="Group 320">
          <path id="Path_416" data-name="Path 416" d="M441.9,449.813h-.027a.275.275,0,0,1-.247-.3c.517-5.31,2.821-9.123,6.01-14.4l.593-.982c.846-1.4,1.793-2.718,2.709-3.988,2.89-4.007,5.62-7.791,5.5-14.37-.158-8.818.9-10.368.946-10.429a.275.275,0,0,1,.448.32c-.047.073-1,1.645-.843,10.1.127,6.763-2.785,10.8-5.6,14.7-.91,1.261-1.85,2.565-2.684,3.95l-.594.983c-3.152,5.215-5.429,8.982-5.934,14.168A.276.276,0,0,1,441.9,449.813Z" transform="translate(-441.62 -405.229)" fill="#000045"/>
        </g>
      </g>
      <g id="Group_323" data-name="Group 323" transform="translate(11.453 47.786)">
        <g id="Group_322" data-name="Group 322">
          <path id="Path_417" data-name="Path 417" d="M494.418,612.8s-1.812.5-1.693,2.136c0,0-1.461,1.091-1.065,2.314a2.388,2.388,0,0,0-.582,2.334,1.809,1.809,0,0,0,0,1.805c.575.807,2.208,1.64,3.022.39a2.047,2.047,0,0,0,.813-1.752,2.118,2.118,0,0,0,1.011-1.514,2.354,2.354,0,0,0,1.256-1.983v-.76Z" transform="translate(-490.547 -612.527)" fill="#fff" fill-rule="evenodd"/>
          <path id="Path_418" data-name="Path 418" d="M490.212,619.956a2.858,2.858,0,0,1-2.106-1.144,2,2,0,0,1-.073-1.988,2.605,2.605,0,0,1,.574-2.384,2.672,2.672,0,0,1,1.089-2.369,2.484,2.484,0,0,1,1.9-2.274.275.275,0,0,1,.275.078l2.763,2.969a.276.276,0,0,1,.074.188v.76a2.556,2.556,0,0,1-1.273,2.153,15.943,15.943,0,0,0-1.877,3.285,1.574,1.574,0,0,1-1.308.726Zm1.377-9.575a1.858,1.858,0,0,0-1.338,1.8.276.276,0,0,1-.11.241c-.013.01-1.3.989-.967,2.008a.275.275,0,0,1-.068.28,2.09,2.09,0,0,0-.517,2.046.275.275,0,0,1-.021.23,1.546,1.546,0,0,0-.014,1.508,2.277,2.277,0,0,0,1.684.913,1.039,1.039,0,0,0,.883-.513.274.274,0,0,1,.063-.068c.008-.006.867-.685.711-1.481a.276.276,0,0,1,.133-.292,1.854,1.854,0,0,0,.874-1.294.275.275,0,0,1,.151-.228,2.057,2.057,0,0,0,1.1-1.734v-.655Z" transform="translate(-487.798 -609.788)" fill="#000045"/>
        </g>
      </g>
      <g id="Group_325" data-name="Group 325" transform="translate(15.062 47.225)">
        <g id="Group_324" data-name="Group 324">
          <path id="Path_419" data-name="Path 419" d="M537.7,615.662s-1.779-5.1-2.05-6.294c-.251-1.091-2.869-1.812-4.741-2.671a.428.428,0,0,0-.417.033.42.42,0,0,0-.192.37c.033.74.489,1.99,2.777,3.141a8.678,8.678,0,0,0,0,4.588l1.322,2.479Z" transform="translate(-530.029 -606.383)" fill="#fff" fill-rule="evenodd"/>
          <path id="Path_420" data-name="Path 420" d="M531.665,614.847a.276.276,0,0,1-.243-.146l-1.322-2.479a.266.266,0,0,1-.018-.043,8.732,8.732,0,0,1-.062-4.532c-2.18-1.153-2.691-2.41-2.729-3.271a.692.692,0,0,1,.32-.615.7.7,0,0,1,.677-.052c.462.212.98.42,1.48.621,1.643.659,3.195,1.281,3.416,2.24.265,1.162,2.024,6.215,2.041,6.266a.275.275,0,0,1-.137.337l-3.3,1.646A.274.274,0,0,1,531.665,614.847Zm-1.068-2.863,1.185,2.222,2.843-1.418c-.353-1.018-1.737-5.035-1.979-6.095-.156-.678-1.711-1.3-3.084-1.852-.507-.2-1.03-.413-1.5-.63a.154.154,0,0,0-.146.01.148.148,0,0,0-.072.13c.027.607.4,1.79,2.626,2.907a.276.276,0,0,1,.14.325A8.472,8.472,0,0,0,530.6,611.984Z" transform="translate(-527.29 -603.646)" fill="#000045"/>
        </g>
      </g>
      <g id="Group_327" data-name="Group 327" transform="translate(13.328 49.854)">
        <g id="Group_326" data-name="Group 326">
          <path id="Path_421" data-name="Path 421" d="M511.822,636.633a.363.363,0,0,1-.231-.083,18.746,18.746,0,0,1-3.216-3.561.364.364,0,0,1,.6-.407,18.341,18.341,0,0,0,3.074,3.4.364.364,0,0,1-.231.646Z" transform="translate(-508.313 -632.422)" fill="#000045"/>
        </g>
      </g>
      <g id="Group_329" data-name="Group 329" transform="translate(12.184 52.179)">
        <g id="Group_328" data-name="Group 328">
          <path id="Path_422" data-name="Path 422" d="M499.332,661.246a.385.385,0,0,1-.211-.063,18.6,18.6,0,0,1-3.226-2.661.388.388,0,0,1,.569-.526,18.166,18.166,0,0,0,3.079,2.537.388.388,0,0,1-.212.713Z" transform="translate(-495.793 -657.872)" fill="#000045"/>
        </g>
      </g>
      <g id="Group_331" data-name="Group 331" transform="translate(11.565 54.464)">
        <g id="Group_330" data-name="Group 330">
          <path id="Path_423" data-name="Path 423" d="M492.513,685.5a.382.382,0,0,1-.131-.023,9.1,9.1,0,0,1-3.252-1.959.383.383,0,0,1,.551-.533,8.505,8.505,0,0,0,2.962,1.771.383.383,0,0,1-.131.744Z" transform="translate(-489.023 -682.871)" fill="#000045"/>
        </g>
      </g>
      <g id="Group_333" data-name="Group 333" transform="translate(18.325 8.178)">
        <g id="Group_332" data-name="Group 332">
          <path id="Path_424" data-name="Path 424" d="M569.9,199.217l-1.375,1.13,3.789,1.388L572,199.984c4.053.74,8.529-2.354,10.374-7.4,2.016-5.5.152-11.253-4.159-12.827s-9.442,1.607-11.458,7.108C564.913,191.911,566.328,197.167,569.9,199.217Z" transform="translate(-565.679 -179.076)" fill="#fff" fill-rule="evenodd"/>
          <path id="Path_425" data-name="Path 425" d="M569.644,199.248a.277.277,0,0,1-.095-.017l-3.789-1.389a.275.275,0,0,1-.08-.471l1.076-.885c-3.473-2.264-4.738-7.539-2.932-12.478a12.462,12.462,0,0,1,4.982-6.349,7.744,7.744,0,0,1,6.829-.923,7.443,7.443,0,0,1,4.19,4.017,12.088,12.088,0,0,1,.133,9.163c-1.8,4.934-6.173,8.146-10.292,7.634l.249,1.372a.276.276,0,0,1-.271.324Zm-3.242-1.757,2.885,1.057-.232-1.279a.275.275,0,0,1,.32-.32c3.967.725,8.3-2.38,10.066-7.222a11.536,11.536,0,0,0-.115-8.742,6.906,6.906,0,0,0-3.879-3.731,7.207,7.207,0,0,0-6.35.874,11.91,11.91,0,0,0-4.755,6.07c-1.772,4.847-.472,10.013,3.026,12.017a.275.275,0,0,1,.038.452Z" transform="translate(-563.005 -176.312)" fill="#000045"/>
        </g>
      </g>
      <g id="Group_335" data-name="Group 335" transform="translate(0 7.691)">
        <g id="Group_334" data-name="Group 334">
          <path id="Path_426" data-name="Path 426" d="M373.083,193.861c-3.854-.324-7.141-4.231-7.57-9.256-.469-5.481,2.638-10.228,6.929-10.592s8.152,3.782,8.622,9.263c.43,5.025-2.149,9.435-5.891,10.413l.959,1.362-3.769.317Z" transform="translate(-365.19 -173.716)" fill="#fff" fill-rule="evenodd"/>
          <path id="Path_427" data-name="Path 427" d="M369.622,192.908a.275.275,0,0,1-.248-.394l.554-1.159c-3.849-.561-7.009-4.547-7.43-9.462a11.7,11.7,0,0,1,1.723-7.389,7.285,7.285,0,0,1,5.457-3.5c4.437-.375,8.438,3.892,8.919,9.514.42,4.915-2.019,9.382-5.719,10.593l.737,1.048a.275.275,0,0,1-.2.433l-3.769.317Zm.6-21.378q-.249,0-.5.021a6.747,6.747,0,0,0-5.043,3.253,11.151,11.151,0,0,0-1.635,7.041c.412,4.818,3.558,8.689,7.319,9.005a.275.275,0,0,1,.225.393l-.513,1.074,2.811-.237-.682-.97a.275.275,0,0,1,.156-.425c3.654-.955,6.1-5.308,5.686-10.124C377.611,175.459,374.155,171.53,370.224,171.53Z" transform="translate(-362.45 -170.979)" fill="#000045"/>
        </g>
      </g>
      <g id="Group_337" data-name="Group 337" transform="translate(8.29 0)">
        <g id="Group_336" data-name="Group 336">
          <path id="Path_428" data-name="Path 428" d="M463.139,112.775c-4.364-1.124-7.385-6.242-6.909-12.1.516-6.38,4.992-11.233,9.99-10.83s8.635,5.917,8.119,12.3c-.469,5.858-4.278,10.427-8.767,10.823l.84,1.752-4.384-.357Z" transform="translate(-455.906 -89.547)" fill="#fff" fill-rule="evenodd"/>
          <path id="Path_429" data-name="Path 429" d="M463.682,112.257h-.022l-4.384-.357a.275.275,0,0,1-.2-.432l.889-1.27c-4.326-1.36-7.2-6.551-6.737-12.28.527-6.526,5.143-11.5,10.287-11.082s8.9,6.072,8.371,12.594c-.459,5.736-4.134,10.395-8.626,11.03l.673,1.4a.275.275,0,0,1-.248.394Zm-3.883-.868,3.427.279-.632-1.32a.275.275,0,0,1,.224-.393c4.4-.389,8.065-4.934,8.517-10.571.5-6.221-3.026-11.6-7.867-12s-9.19,4.354-9.693,10.578c-.458,5.631,2.424,10.708,6.7,11.81a.275.275,0,0,1,.157.425Z" transform="translate(-453.176 -86.81)" fill="#3d61ff"/>
        </g>
      </g>
      <g id="Group_339" data-name="Group 339" transform="translate(10.941 2.122)">
        <g id="Group_338" data-name="Group 338">
          <path id="Path_430" data-name="Path 430" d="M482.466,115.125a.276.276,0,0,1-.247-.4,8.857,8.857,0,0,1,5.063-4.677.275.275,0,1,1,.165.525,8.307,8.307,0,0,0-4.734,4.395A.276.276,0,0,1,482.466,115.125Z" transform="translate(-482.191 -110.038)" fill="#3d61ff"/>
        </g>
      </g>
      <g id="Group_341" data-name="Group 341" transform="translate(31.857 11.28)">
        <g id="Group_340" data-name="Group 340">
          <path id="Path_431" data-name="Path 431" d="M713.707,216.453a.275.275,0,0,1-.275-.268,7.578,7.578,0,0,0-2.244-5.448.275.275,0,1,1,.37-.408,8.126,8.126,0,0,1,2.425,5.842.275.275,0,0,1-.268.283Z" transform="translate(-711.098 -210.257)" fill="#000045"/>
        </g>
      </g>
      <g id="Group_343" data-name="Group 343" transform="translate(1.657 9.842)">
        <g id="Group_342" data-name="Group 342">
          <path id="Path_432" data-name="Path 432" d="M380.856,199.61a.276.276,0,0,1-.264-.355,7.644,7.644,0,0,1,3.644-4.7.275.275,0,1,1,.249.491,7.1,7.1,0,0,0-3.366,4.37A.275.275,0,0,1,380.856,199.61Z" transform="translate(-380.581 -194.523)" fill="#000045"/>
        </g>
      </g>
      <g id="Group_345" data-name="Group 345" transform="translate(16.495 55.758)">
        <g id="Group_344" data-name="Group 344">
          <path id="Path_433" data-name="Path 433" d="M565.3,748.252l12.946-13.977c-1.613-1.541-12.4-14.182-12.4-14.182l-9.977-17.243s-1.633-3.412-4.119-2.955c0,0-1.276-1.779-1.845-2.565a.7.7,0,0,0-.727-.271,9.692,9.692,0,0,0-6.069,4.807,1.1,1.1,0,0,0-.073.879c.238.721.7,2.1.7,2.1a7.043,7.043,0,0,0,.225,4.311c.893,2.083,8.423,17.666,8.423,17.666Z" transform="translate(-542.975 -697.039)" fill="#3d61ff" fill-rule="evenodd"/>
        </g>
      </g>
      <g id="Group_347" data-name="Group 347" transform="translate(18.223 59.013)">
        <g id="Group_346" data-name="Group 346">
          <path id="Path_434" data-name="Path 434" d="M562.158,736.472a.275.275,0,0,1-.168-.494,37.942,37.942,0,0,1,5.15-3.294.275.275,0,1,1,.243.494,37.329,37.329,0,0,0-5.058,3.237A.275.275,0,0,1,562.158,736.472Z" transform="translate(-561.883 -732.655)" fill="#000045"/>
        </g>
      </g>
      <g id="Group_349" data-name="Group 349" transform="translate(39.248 103.132)">
        <g id="Group_348" data-name="Group 348">
          <path id="Path_435" data-name="Path 435" d="M792.261,1219.092a.275.275,0,0,1-.206-.458l2.678-3.035a.275.275,0,1,1,.413.365L792.467,1219A.275.275,0,0,1,792.261,1219.092Z" transform="translate(-791.985 -1215.507)" fill="#000045"/>
        </g>
      </g>
    </g>
    <g id="Left-hand" transform="translate(315.403 121.517)">
      <g id="Group_351" data-name="Group 351" transform="translate(37.926 15.85)">
        <g id="Group_350" data-name="Group 350">
          <path id="Path_436" data-name="Path 436" d="M1534.044,643.808s-.555-.979-1.183-.588.681,1.745.972,2.691,1.223,3.081.846,4.965l1.818,3.18,1.626,2.083,3.226-3.788Z" transform="translate(-1532.419 -642.853)" fill="#fff" fill-rule="evenodd"/>
          <path id="Path_437" data-name="Path 437" d="M1535.381,653.677h-.006a.275.275,0,0,1-.211-.106l-1.626-2.083a.266.266,0,0,1-.022-.033l-1.818-3.18a.275.275,0,0,1-.031-.191,8.745,8.745,0,0,0-.658-4.289c-.072-.208-.134-.387-.181-.542a5.591,5.591,0,0,0-.549-1.067c-.437-.727-.932-1.552-.3-1.939a.832.832,0,0,1,.658-.106,1.716,1.716,0,0,1,.9.769l7.29,8.524a.276.276,0,0,1,0,.358l-3.227,3.789A.276.276,0,0,1,1535.381,653.677Zm-1.4-2.512,1.406,1.8,2.855-3.353-7.153-8.364a.28.28,0,0,1-.03-.043h0c-.068-.118-.317-.469-.568-.532a.281.281,0,0,0-.231.041c-.165.1.259.808.486,1.188a5.938,5.938,0,0,1,.6,1.188c.045.145.105.32.175.524a9.381,9.381,0,0,1,.7,4.474Z" transform="translate(-1529.677 -640.116)" fill="#000045"/>
        </g>
      </g>
      <g id="Group_353" data-name="Group 353" transform="translate(31.787 1.164)">
        <g id="Group_352" data-name="Group 352">
          <path id="Path_438" data-name="Path 438" d="M1475.753,482.4l-10.242,5.913s12.446,15.673,14.711,18.522a.659.659,0,0,0,.841.163l2.14-1.236a.651.651,0,0,0,.291-.776C1482.327,501.588,1475.753,482.4,1475.753,482.4Z" transform="translate(-1465.236 -482.124)" fill="#fff" fill-rule="evenodd"/>
          <path id="Path_439" data-name="Path 439" d="M1478,504.62a.938.938,0,0,1-.734-.353c-2.239-2.815-14.586-18.365-14.711-18.521a.275.275,0,0,1,.078-.41l10.242-5.913a.275.275,0,0,1,.4.149c.066.192,6.588,19.228,7.741,22.585a.931.931,0,0,1-.413,1.1l-2.14,1.236A.92.92,0,0,1,1478,504.62Zm-14.815-18.966c1.607,2.023,12.43,15.653,14.512,18.271a.383.383,0,0,0,.488.1l2.14-1.236a.374.374,0,0,0,.167-.449c-1.071-3.117-6.771-19.756-7.632-22.268Z" transform="translate(-1462.497 -479.386)" fill="#000045"/>
        </g>
      </g>
      <g id="Group_355" data-name="Group 355" transform="translate(31.23 0)">
        <g id="Group_354" data-name="Group 354">
          <ellipse id="Ellipse_238" data-name="Ellipse 238" cx="5.912" cy="1.633" rx="5.912" ry="1.633" transform="translate(0 5.912) rotate(-30)" fill="#fff"/>
          <path id="Path_440" data-name="Path 440" d="M1462.814,482.715a1.177,1.177,0,0,1-1.1-.458c-.626-1.085,1.742-3.209,4.4-4.746h0a16.693,16.693,0,0,1,3.928-1.7c1.271-.33,2.095-.239,2.384.263s-.044,1.262-.964,2.2a16.7,16.7,0,0,1-3.44,2.549A12.6,12.6,0,0,1,1462.814,482.715Zm8.53-6.553a4.766,4.766,0,0,0-1.159.178,16.138,16.138,0,0,0-3.791,1.648h0c-2.98,1.72-4.479,3.514-4.2,3.994s2.58.078,5.56-1.643a16.14,16.14,0,0,0,3.323-2.459c.769-.781,1-1.333.88-1.535C1471.891,476.236,1471.687,476.162,1471.344,476.162Zm-5.088,1.587h0Z" transform="translate(-1461.136 -474.794)" fill="#000045"/>
        </g>
      </g>
      <g id="Group_357" data-name="Group 357" transform="translate(40.922 10.084)">
        <g id="Group_356" data-name="Group 356">
          <path id="Path_441" data-name="Path 441" d="M1562.742,584.568a.275.275,0,0,1-.212-.451,16.794,16.794,0,0,0,3.488-6.895.275.275,0,1,1,.537.123,17.343,17.343,0,0,1-3.6,7.122A.275.275,0,0,1,1562.742,584.568Z" transform="translate(-1562.467 -577.009)" fill="#3d61ff"/>
        </g>
      </g>
      <g id="Group_359" data-name="Group 359" transform="translate(43.514 15.128)">
        <g id="Group_358" data-name="Group 358">
          <path id="Path_442" data-name="Path 442" d="M1591.107,638.172a.275.275,0,0,1-.22-.44,16.917,16.917,0,0,0,2.7-5.314.275.275,0,1,1,.528.155,17.47,17.47,0,0,1-2.788,5.489A.275.275,0,0,1,1591.107,638.172Z" transform="translate(-1590.832 -632.219)" fill="#3d61ff"/>
        </g>
      </g>
      <g id="Group_361" data-name="Group 361" transform="translate(37.662 4.431)">
        <g id="Group_360" data-name="Group 360">
          <path id="Path_443" data-name="Path 443" d="M1527.069,524.723a.275.275,0,0,1-.2-.469,16.987,16.987,0,0,0,4.8-8.884.275.275,0,0,1,.543.092,17.554,17.554,0,0,1-4.956,9.18A.275.275,0,0,1,1527.069,524.723Z" transform="translate(-1526.794 -515.14)" fill="#3d61ff"/>
        </g>
      </g>
      <g id="Group_363" data-name="Group 363" transform="translate(43.905 12.861)">
        <g id="Group_362" data-name="Group 362">
          <path id="Path_444" data-name="Path 444" d="M1600.253,610.414a1.5,1.5,0,0,1,.959,1.825,1.861,1.861,0,0,1,.714,1.977,1.32,1.32,0,0,1,.734,1.567.927.927,0,0,1,.483,1.243c-.344.919-1.329,1.719-1.785,1.626s-.667-.734.192-1.653c0,0-.932.773-1.448.3-.648-.6.258-1.494.258-1.494s-.807.416-1.137-.073c-.463-.688.516-1.719.516-1.719s-.806.569-1.21.423C1597.39,614.017,1598.884,611.611,1600.253,610.414Z" transform="translate(-1597.849 -610.139)" fill="#fff" fill-rule="evenodd"/>
          <path id="Path_445" data-name="Path 445" d="M1598.693,616.2a.639.639,0,0,1-.128-.012.754.754,0,0,1-.576-.515,1.092,1.092,0,0,1,.039-.709.924.924,0,0,1-.85-.2.96.96,0,0,1-.322-.7,1.3,1.3,0,0,1,.127-.553.832.832,0,0,1-.726-.36,1.221,1.221,0,0,1-.03-1.192.919.919,0,0,1-.53,0,.842.842,0,0,1-.565-.667c-.2-1.062,1.152-2.9,2.2-3.819a.275.275,0,0,1,.27-.053,1.752,1.752,0,0,1,1.173,1.982,2.086,2.086,0,0,1,.741,1.945,1.571,1.571,0,0,1,.709,1.555,1.181,1.181,0,0,1,.436,1.486C1600.31,615.324,1599.343,616.2,1598.693,616.2Zm.118-2.21a.275.275,0,0,1,.2.463c-.459.491-.559.866-.5,1.052a.2.2,0,0,0,.161.143c.266.054,1.158-.612,1.473-1.453a.644.644,0,0,0-.33-.892.278.278,0,0,1-.163-.315,1.033,1.033,0,0,0-.57-1.251.277.277,0,0,1-.152-.354c.349-.907-.583-1.628-.623-1.658a.277.277,0,0,1-.1-.286,1.188,1.188,0,0,0-.638-1.435c-1.091,1.007-2.015,2.547-1.9,3.188a.3.3,0,0,0,.212.25,1.734,1.734,0,0,0,.957-.39.275.275,0,0,1,.359.415c-.214.227-.763.966-.487,1.376.182.269.776-.015.782-.018a.275.275,0,0,1,.32.441,1.369,1.369,0,0,0-.409.792.407.407,0,0,0,.146.3c.274.253.891-.148,1.085-.308A.275.275,0,0,1,1598.811,613.985Z" transform="translate(-1595.111 -607.4)" fill="#000045"/>
        </g>
      </g>
      <g id="Group_365" data-name="Group 365" transform="translate(45.519 14.781)">
        <g id="Group_364" data-name="Group 364">
          <path id="Path_446" data-name="Path 446" d="M1613.054,630.653a.275.275,0,0,1-.21-.453l1.43-1.686a.275.275,0,1,1,.42.356l-1.43,1.686A.275.275,0,0,1,1613.054,630.653Z" transform="translate(-1612.779 -628.416)" fill="#000045"/>
        </g>
      </g>
      <g id="Group_367" data-name="Group 367" transform="translate(46.141 16.719)">
        <g id="Group_366" data-name="Group 366">
          <path id="Path_447" data-name="Path 447" d="M1619.854,651.719a.27.27,0,0,1-.193-.459l1.523-1.554a.27.27,0,1,1,.385.378l-1.522,1.554A.269.269,0,0,1,1619.854,651.719Z" transform="translate(-1619.584 -649.625)" fill="#000045"/>
        </g>
      </g>
      <g id="Group_369" data-name="Group 369" transform="translate(47.163 18.286)">
        <g id="Group_368" data-name="Group 368">
          <path id="Path_448" data-name="Path 448" d="M1631.041,668.675a.275.275,0,0,1-.205-.459l1.209-1.351a.275.275,0,0,1,.41.367l-1.209,1.351A.275.275,0,0,1,1631.041,668.675Z" transform="translate(-1630.766 -666.773)" fill="#000045"/>
        </g>
      </g>
      <g id="Group_371" data-name="Group 371" transform="translate(0 23.249)">
        <g id="Group_370" data-name="Group 370">
          <path id="Path_449" data-name="Path 449" d="M1114.61,757.547c1.051-1.686,2.684-3.306,5.448-6a144.753,144.753,0,0,1,12.483-11.035s11.782-13.62,14.017-15.709,3.828-1.111,3.828-1.111,1.884-1.54,2.876-2.354a1.072,1.072,0,0,1,1.283-.053,10.6,10.6,0,0,1,4.3,6.169,1.247,1.247,0,0,1-.159.932c-.628,1.018-2.195,3.551-2.195,3.551a7.173,7.173,0,0,1-1.435,4.185c-1.6,2.446-12.906,17.276-12.906,17.276L1124.494,774l-.007.258Z" transform="translate(-1114.61 -721.094)" fill="#3d61ff" fill-rule="evenodd"/>
        </g>
      </g>
      <g id="Group_373" data-name="Group 373" transform="translate(36.512 26.514)">
        <g id="Group_372" data-name="Group 372">
          <path id="Path_450" data-name="Path 450" d="M1518.958,763.482a.275.275,0,0,1-.252-.164,20.1,20.1,0,0,0-4.407-6.015.275.275,0,0,1,.365-.412,20.275,20.275,0,0,1,4.545,6.2.276.276,0,0,1-.251.387Z" transform="translate(-1514.206 -756.822)" fill="#000045"/>
        </g>
      </g>
      <g id="Group_375" data-name="Group 375" transform="translate(4.908 68.401)">
        <g id="Group_374" data-name="Group 374">
          <path id="Path_451" data-name="Path 451" d="M1172.683,1222.461a.275.275,0,0,1-.235-.131l-4.084-6.661a.275.275,0,1,1,.47-.288l4.084,6.661a.275.275,0,0,1-.235.419Z" transform="translate(-1168.323 -1215.25)" fill="#000045"/>
        </g>
      </g>
    </g>
  </g>
</svg>
