<svg id="Group_219" data-name="Group 219" xmlns="http://www.w3.org/2000/svg" width="36.762" height="28.655" viewBox="0 0 36.762 28.655">
  <path id="Path_219" data-name="Path 219" d="M433.363,338.185l-22,2.888,1.314-2.122,5.506-8.885,6.148,4.057,2.558-19.761.344-.436v0l-.091-1.475Z" transform="translate(-396.601 -312.418)"/>
  <path id="Path_220" data-name="Path 220" d="M434.062,336.987l-16.083,1.965,5.506-8.885,6.149,4.057,2.558-19.761.247-1.913.1,1.475v0Z" transform="translate(-401.908 -312.418)" fill="#ff3381"/>
  <path id="Path_221" data-name="Path 221" d="M380.787,312.388l-27.244,6.445,1.118,6.876Z" transform="translate(-350.258 -312.37)"/>
  <path id="Path_222" data-name="Path 222" d="M367.517,312.315l-18.476,11.344,6.391,4.218-4.974,7.677-2.53,3.9-.609.074-2.152.265-8.179-14.773,4.031-1.68,26.4-11,.1-.042Z" transform="translate(-336.989 -312.298)" fill="#ff3381"/>
</svg>
