<svg xmlns="http://www.w3.org/2000/svg" width="130.723" height="31.149" viewBox="0 0 130.723 31.149">
  <g id="Group_211" data-name="Group 211" transform="translate(-5188 241)">
    <g id="Group_90" data-name="Group 90" transform="translate(5233.025 -231.077)">
      <path id="Path_208" data-name="Path 208" d="M552.328,361.041v1.534a3.2,3.2,0,0,1-1.159-.181,1.593,1.593,0,0,1-.736-.572,3.885,3.885,0,0,1-1.582.3,3.487,3.487,0,0,1-2.263-.7,2.253,2.253,0,0,1-.865-1.842v-5.745a2.253,2.253,0,0,1,.865-1.842,4.013,4.013,0,0,1,4.527,0,2.253,2.253,0,0,1,.865,1.842v5.745a2.363,2.363,0,0,1-.368,1.308,1.366,1.366,0,0,0,.718.151m-2.3-7.2a.959.959,0,0,0-.313-.767,1.517,1.517,0,0,0-1.73,0,.959.959,0,0,0-.313.767v5.745a.958.958,0,0,0,.313.767,1.517,1.517,0,0,0,1.73,0,.959.959,0,0,0,.313-.767Z" transform="translate(-545.721 -351.296)"/>
      <path id="Path_209" data-name="Path 209" d="M590.636,358.189l-.736,1.158v3.173h-1.951V351.993H589.9v4.271l2.576-4.271h2.1l-2.742,4.467,2.944,6.061h-2.1Z" transform="translate(-578.84 -351.842)"/>
      <path id="Path_210" data-name="Path 210" d="M645.186,361.432a2.22,2.22,0,0,1-.846-1.8v-5.836a2.221,2.221,0,0,1,.846-1.8,3.871,3.871,0,0,1,4.417,0,2.221,2.221,0,0,1,.846,1.8v1.233h-1.914v-1.233a.907.907,0,0,0-.313-.722,1.346,1.346,0,0,0-1.619,0,.906.906,0,0,0-.313.722v5.836a.906.906,0,0,0,.313.722,1.346,1.346,0,0,0,1.619,0,.906.906,0,0,0,.313-.722v-1.5h1.914v1.5a2.221,2.221,0,0,1-.846,1.8,3.871,3.871,0,0,1-4.417,0" transform="translate(-623.067 -351.296)"/>
      <path id="Path_211" data-name="Path 211" d="M688.73,362.521l-1.417-4.346H686.3v4.346H684.35V351.993H687.4a3.389,3.389,0,0,1,2.227.684,2.251,2.251,0,0,1,.828,1.827v1.158a2.3,2.3,0,0,1-1.344,2.15l1.638,4.707Zm-2.429-5.85h1.012a1.361,1.361,0,0,0,.883-.256.88.88,0,0,0,.313-.722v-1.218a.88.88,0,0,0-.313-.722,1.362,1.362,0,0,0-.883-.256H686.3Z" transform="translate(-654.447 -351.843)"/>
      <path id="Path_212" data-name="Path 212" d="M724.872,351.993h5.539v1.5h-3.588v2.933h2.852v1.5h-2.852v3.083h3.588v1.5h-5.539Z" transform="translate(-686.228 -351.843)"/>
      <path id="Path_213" data-name="Path 213" d="M763.98,360.189h-2.1l-.423,2.331h-1.951l2.135-10.528h2.613l2.134,10.528H764.4Zm-.258-1.534-.791-4.406-.791,4.406Z" transform="translate(-713.393 -351.843)"/>
      <path id="Path_214" data-name="Path 214" d="M795.339,351.993h6.22v1.5h-2.135v9.024h-1.951V353.5h-2.135Z" transform="translate(-741.495 -351.843)"/>
      <path id="Path_215" data-name="Path 215" d="M834.678,361.425a2.252,2.252,0,0,1-.865-1.843v-5.745a2.252,2.252,0,0,1,.865-1.842,4.011,4.011,0,0,1,4.527,0,2.253,2.253,0,0,1,.865,1.842v5.745a2.254,2.254,0,0,1-.865,1.843,4.011,4.011,0,0,1-4.527,0m3.128-1.076a.96.96,0,0,0,.313-.767v-5.745a.96.96,0,0,0-.313-.767,1.517,1.517,0,0,0-1.73,0,.959.959,0,0,0-.313.767v5.745a.959.959,0,0,0,.313.767,1.517,1.517,0,0,0,1.73,0" transform="translate(-771.669 -351.296)"/>
      <path id="Path_216" data-name="Path 216" d="M879.738,362.521l-1.417-4.346h-1.012v4.346h-1.951V351.993h3.055a3.389,3.389,0,0,1,2.227.684,2.251,2.251,0,0,1,.828,1.827v1.158a2.3,2.3,0,0,1-1.343,2.15l1.638,4.707Zm-2.429-5.85h1.012a1.361,1.361,0,0,0,.883-.256.88.88,0,0,0,.313-.722v-1.218a.88.88,0,0,0-.313-.722,1.362,1.362,0,0,0-.883-.256h-1.012Z" transform="translate(-804.253 -351.843)"/>
      <path id="Path_217" data-name="Path 217" d="M915.343,361.793a2.633,2.633,0,0,1-1.114-.917,2.334,2.334,0,0,1-.4-1.338v-.376l1.877-.165v.391a1.218,1.218,0,0,0,.331.9,1.243,1.243,0,0,0,.92.331,1.423,1.423,0,0,0,.911-.271.891.891,0,0,0,.341-.737,1.582,1.582,0,0,0-.359-.978,8.588,8.588,0,0,0-1.426-1.293,10.062,10.062,0,0,1-1.96-1.85,2.716,2.716,0,0,1-.524-1.609,2.391,2.391,0,0,1,.791-1.887,3.7,3.7,0,0,1,4.343.007,2.416,2.416,0,0,1,.791,1.895v.271l-1.877.165v-.3a1.355,1.355,0,0,0-.276-.917.994.994,0,0,0-.791-.316,1.123,1.123,0,0,0-.792.255.975.975,0,0,0-.276.752,1.506,1.506,0,0,0,.368.955,10.469,10.469,0,0,0,1.417,1.316,11.913,11.913,0,0,1,1.96,1.887,2.6,2.6,0,0,1,.525,1.572,2.338,2.338,0,0,1-.4,1.338,2.633,2.633,0,0,1-1.113.917,4.219,4.219,0,0,1-3.276,0" transform="translate(-834.429 -351.296)"/>
    </g>
    <g id="Group_89" data-name="Group 89" transform="translate(5188 -241)">
      <path id="Path_219" data-name="Path 219" d="M435.278,340.425l-23.92,3.14,1.428-2.307,5.985-9.659,6.684,4.41,2.78-21.482.374-.474v0l-.1-1.6Z" transform="translate(-395.316 -312.416)"/>
      <path id="Path_220" data-name="Path 220" d="M435.462,339.123l-17.483,2.136,5.985-9.659,6.684,4.41,2.78-21.481.268-2.079.106,1.6v0Z" transform="translate(-400.509 -312.416)" fill="#ff3381"/>
      <path id="Path_221" data-name="Path 221" d="M383.159,312.388l-29.616,7.006,1.215,7.474Z" transform="translate(-349.972 -312.368)"/>
      <path id="Path_222" data-name="Path 222" d="M370.174,312.317l-20.084,12.331,6.948,4.585-5.407,8.345-2.75,4.243-.662.08-2.339.288-8.891-16.059,4.382-1.826,28.7-11.961.108-.045Z" transform="translate(-336.989 -312.298)" fill="#ff3381"/>
    </g>
  </g>
</svg>
